<svg width="16" height="22" viewBox="0 0 16 22" fill="none" xmlns="http://www.w3.org/2000/svg">
<path d="M7.90002 20.8999C7.90002 20.8999 14.9 14.7999 14.9 7.8999C14.9 6.98065 14.719 6.0704 14.3672 5.22112C14.0154 4.37184 13.4998 3.60016 12.8498 2.95015C12.1998 2.30014 11.4281 1.78453 10.5788 1.43275C9.72953 1.08096 8.81928 0.899902 7.90002 0.899902C6.98077 0.899902 6.07052 1.08096 5.22124 1.43275C4.37196 1.78453 3.60029 2.30014 2.95028 2.95015C2.30027 3.60016 1.78465 4.37184 1.43287 5.22112C1.08108 6.0704 0.900024 6.98065 0.900024 7.8999C0.900024 14.7999 7.90002 20.8999 7.90002 20.8999Z" stroke="#0050C3" stroke-width="1.8" stroke-linecap="round" stroke-linejoin="round"/>
<path d="M7.9 10.3C9.22548 10.3 10.3 9.22548 10.3 7.9C10.3 6.57452 9.22548 5.5 7.9 5.5C6.57452 5.5 5.5 6.57452 5.5 7.9C5.5 9.22548 6.57452 10.3 7.9 10.3Z" stroke="#0050C3" stroke-width="1.8" stroke-linecap="round" stroke-linejoin="round"/>
</svg>
